<svg width="972" height="400" xmlns="http://www.w3.org/2000/svg" xmlns:xlink="http://www.w3.org/1999/xlink" version="1.1" baseProfile="full" viewBox="0 0 972 400">
<rect width="972" height="400" x="0" y="0" id="0" fill="rgb(0,0,0)" fill-opacity="0"></rect>
<path d="M76.6215 360l846.7785 0l0 -56l-846.7785 0Z" fill="rgb(250,250,250)" fill-opacity="0.3"></path>
<path d="M76.6215 304l846.7785 0l0 -56l-846.7785 0Z" fill="rgb(200,200,200)" fill-opacity="0.3"></path>
<path d="M76.6215 248l846.7785 0l0 -56l-846.7785 0Z" fill="rgb(250,250,250)" fill-opacity="0.3"></path>
<path d="M76.6215 192l846.7785 0l0 -56l-846.7785 0Z" fill="rgb(200,200,200)" fill-opacity="0.3"></path>
<path d="M76.6215 136l846.7785 0l0 -56l-846.7785 0Z" fill="rgb(250,250,250)" fill-opacity="0.3"></path>
<path d="M76.6215 360.5L923.4 360.5" fill="none" stroke="#eee"></path>
<path d="M76.6215 304.5L923.4 304.5" fill="none" stroke="#eee"></path>
<path d="M76.6215 248.5L923.4 248.5" fill="none" stroke="#eee"></path>
<path d="M76.6215 192.5L923.4 192.5" fill="none" stroke="#eee"></path>
<path d="M76.6215 136.5L923.4 136.5" fill="none" stroke="#eee"></path>
<path d="M76.6215 80.5L923.4 80.5" fill="none" stroke="#eee"></path>
<path d="M76.5 360L76.5 80" fill="none" stroke="#008acd" stroke-linecap="round"></path>
<text dominant-baseline="central" text-anchor="middle" style="font-size:12px;font-family:sans-serif;" xml:space="preserve" y="-6" transform="translate(76.6215 65)" fill="#008acd">Popularity (Worldwide)</text>
<path d="M76.6215 360.5L923.4 360.5" fill="none" stroke="#008acd" stroke-linecap="round"></path>
<path d="M76.6215 360.5L71.6215 360.5" fill="none" stroke="#333"></path>
<path d="M76.6215 304.5L71.6215 304.5" fill="none" stroke="#333"></path>
<path d="M76.6215 248.5L71.6215 248.5" fill="none" stroke="#333"></path>
<path d="M76.6215 192.5L71.6215 192.5" fill="none" stroke="#333"></path>
<path d="M76.6215 136.5L71.6215 136.5" fill="none" stroke="#333"></path>
<path d="M76.6215 80.5L71.6215 80.5" fill="none" stroke="#333"></path>
<path d="M76.5 360L76.5 365" fill="none" stroke="#333"></path>
<path d="M137.5 360L137.5 365" fill="none" stroke="#333"></path>
<path d="M197.5 360L197.5 365" fill="none" stroke="#333"></path>
<path d="M258.5 360L258.5 365" fill="none" stroke="#333"></path>
<path d="M318.5 360L318.5 365" fill="none" stroke="#333"></path>
<path d="M379.5 360L379.5 365" fill="none" stroke="#333"></path>
<path d="M439.5 360L439.5 365" fill="none" stroke="#333"></path>
<path d="M500.5 360L500.5 365" fill="none" stroke="#333"></path>
<path d="M560.5 360L560.5 365" fill="none" stroke="#333"></path>
<path d="M621.5 360L621.5 365" fill="none" stroke="#333"></path>
<path d="M681.5 360L681.5 365" fill="none" stroke="#333"></path>
<path d="M742.5 360L742.5 365" fill="none" stroke="#333"></path>
<path d="M802.5 360L802.5 365" fill="none" stroke="#333"></path>
<path d="M863.5 360L863.5 365" fill="none" stroke="#333"></path>
<path d="M923.5 360L923.5 365" fill="none" stroke="#333"></path>
<text dominant-baseline="central" text-anchor="end" style="font-size:12px;font-family:sans-serif;" transform="translate(68.6215 360)" fill="#333">0</text>
<text dominant-baseline="central" text-anchor="end" style="font-size:12px;font-family:sans-serif;" transform="translate(68.6215 304)" fill="#333">20</text>
<text dominant-baseline="central" text-anchor="end" style="font-size:12px;font-family:sans-serif;" transform="translate(68.6215 248)" fill="#333">40</text>
<text dominant-baseline="central" text-anchor="end" style="font-size:12px;font-family:sans-serif;" transform="translate(68.6215 192)" fill="#333">60</text>
<text dominant-baseline="central" text-anchor="end" style="font-size:12px;font-family:sans-serif;" transform="translate(68.6215 136)" fill="#333">80</text>
<text dominant-baseline="central" text-anchor="end" style="font-size:12px;font-family:sans-serif;" transform="translate(68.6215 80)" fill="#333">100</text>
<text dominant-baseline="central" text-anchor="middle" style="font-size:12px;font-family:sans-serif;" y="6" transform="translate(76.6215 368)" fill="#333">2015-01</text>
<text dominant-baseline="central" text-anchor="middle" style="font-size:12px;font-family:sans-serif;" y="6" transform="translate(137.1057 368)" fill="#333">2015-10</text>
<text dominant-baseline="central" text-anchor="middle" style="font-size:12px;font-family:sans-serif;" y="6" transform="translate(197.5898 368)" fill="#333">2016-07</text>
<text dominant-baseline="central" text-anchor="middle" style="font-size:12px;font-family:sans-serif;" y="6" transform="translate(258.074 368)" fill="#333">2017-04</text>
<text dominant-baseline="central" text-anchor="middle" style="font-size:12px;font-family:sans-serif;" y="6" transform="translate(318.5582 368)" fill="#333">2018-01</text>
<text dominant-baseline="central" text-anchor="middle" style="font-size:12px;font-family:sans-serif;" y="6" transform="translate(379.0424 368)" fill="#333">2018-10</text>
<text dominant-baseline="central" text-anchor="middle" style="font-size:12px;font-family:sans-serif;" y="6" transform="translate(439.5266 368)" fill="#333">2019-07</text>
<text dominant-baseline="central" text-anchor="middle" style="font-size:12px;font-family:sans-serif;" y="6" transform="translate(500.0107 368)" fill="#333">2020-04</text>
<text dominant-baseline="central" text-anchor="middle" style="font-size:12px;font-family:sans-serif;" y="6" transform="translate(560.4949 368)" fill="#333">2021-01</text>
<text dominant-baseline="central" text-anchor="middle" style="font-size:12px;font-family:sans-serif;" y="6" transform="translate(620.9791 368)" fill="#333">2021-10</text>
<text dominant-baseline="central" text-anchor="middle" style="font-size:12px;font-family:sans-serif;" y="6" transform="translate(681.4633 368)" fill="#333">2022-07</text>
<text dominant-baseline="central" text-anchor="middle" style="font-size:12px;font-family:sans-serif;" y="6" transform="translate(741.9475 368)" fill="#333">2023-04</text>
<text dominant-baseline="central" text-anchor="middle" style="font-size:12px;font-family:sans-serif;" y="6" transform="translate(802.4316 368)" fill="#333">2024-01</text>
<text dominant-baseline="central" text-anchor="middle" style="font-size:12px;font-family:sans-serif;" y="6" transform="translate(862.9158 368)" fill="#333">2024-10</text>
<text dominant-baseline="central" text-anchor="middle" style="font-size:12px;font-family:sans-serif;" y="6" transform="translate(923.4 368)" fill="#333">2025-07</text>
<g clip-path="url(#zr0-c0)">
<path d="M76.6215 360C76.6215 360 79.9817 360 83.3419 360C86.7022 360 86.7022 360 90.0624 360C93.4226 360 93.4226 360 96.7829 360C100.1431 360 100.1431 360 103.5033 360C106.8636 360 106.8636 360 110.2238 360C113.584 360 113.584 360 116.9443 360C120.3045 360 120.3045 360 123.6647 360C127.025 360 127.025 360 130.3852 360C133.7454 360 133.7454 360 137.1057 360C140.4659 360 140.4659 360 143.8261 360C147.1864 360 147.1864 360 150.5466 360C153.9068 360 153.9068 360 157.2671 360C160.6273 360 160.6273 360 163.9875 360C167.3478 360 167.3478 360 170.708 360C174.0682 360 174.0682 360 177.4285 360C180.7887 360 180.7887 360 184.1489 360C187.5091 360 187.5091 360 190.8694 360C194.2296 360 194.2296 360 197.5898 360C200.9501 360 200.9501 360 204.3103 360C207.6705 360 207.6705 360 211.0308 360C214.391 360 214.391 360 217.7512 360C221.1115 360 221.1115 360 224.4717 360C227.8319 360 227.8319 360 231.1922 360C234.5524 360 234.5524 360 237.9126 360C241.2729 360 241.2729 360 244.6331 360C247.9933 360 247.9933 360 251.3536 360C254.7138 360 254.7138 360 258.074 360C261.4343 360 261.4343 360 264.7945 360C268.1547 360 268.1547 360 271.515 360C274.8752 360 274.8752 360 278.2354 360C281.5956 360 281.5956 360 284.9559 360C288.3161 360 288.3161 360 291.6763 360C295.0366 360 295.477 360 298.3968 360C302.1975 360 302.9271 358.0501 305.1173 354.4C309.6475 346.8501 307.623 345.502 311.8377 337.6C314.3435 332.902 314.5502 332.5398 318.5582 329.2C321.2707 326.9398 322.2261 328.3077 325.2787 326.4C328.9465 324.1077 328.3313 323.0922 331.9991 320.8C335.0517 318.8923 336.0071 320.2603 338.7196 318C342.7276 314.6603 341.7336 309.6 345.4401 309.6C348.4541 309.6 348.4927 315.2 352.1605 315.2C355.2131 315.2 355.5207 313.8 358.881 312.4C362.2412 311 362.2412 311 365.6014 309.6C368.9617 308.2 370.1769 309.4811 372.3219 306.8C376.8974 301.0811 374.467 298.5189 379.0424 292.8C381.1874 290.1189 382.7103 290 385.7628 290C389.4307 290 388.6827 295.6 392.4833 295.6C395.4031 295.6 396.2839 295.6 399.2038 295.6C403.0044 295.6 402.9102 293.1394 405.9243 290C409.6307 286.1394 408.9383 285.4606 412.6447 281.6C415.6587 278.4606 415.6973 276 419.3652 276C422.4178 276 423.033 276.8922 426.0856 278.8C429.7535 281.0922 430.6159 284.4 432.8061 284.4C437.3364 284.4 434.9963 267.6 439.5266 267.6C441.7168 267.6 442.8868 270.4 446.247 273.2C449.6073 276 450.2719 278.8 452.9675 278.8C456.9924 278.8 455.3728 272.0947 459.688 267.6C462.0932 265.0947 463.6959 264.8 466.4084 264.8C470.4164 264.8 469.4224 269.3394 473.1289 273.2C476.1429 276.3394 477.4278 278.8 479.8493 278.8C484.1482 278.8 481.9944 264.8 486.5698 264.8C488.7149 264.8 490.885 267.6 493.2903 267.6C497.6055 267.6 495.9859 261.4307 500.0107 256.4C502.7063 253.0307 502.9306 250.8 506.7312 250.8C509.651 250.8 510.8676 250.8 513.4517 250.8C517.588 250.8 517.6664 242.4 520.1721 242.4C524.3868 242.4 522.1003 259.2 526.8926 259.2C528.8208 259.2 531.8656 256.4 533.613 256.4C538.5861 256.4 535.6081 276 540.3336 276C542.3286 276 543.6938 270.4 547.054 270.4C550.4142 270.4 550.7605 272.8606 553.7745 276C557.4809 279.8606 556.7885 284.4 560.4949 284.4C563.5089 284.4 564.5198 282.1693 567.2154 278.8C571.2402 273.7693 569.911 272.6307 573.9359 267.6C576.6315 264.2307 576.8557 262 580.6563 262C583.5761 262 584.0165 262 587.3768 262C590.737 262 590.8714 262 594.0972 262C597.5918 262 598.4124 262.2947 600.8177 264.8C605.1329 269.2947 603.2229 276 607.5381 276C609.9434 276 612.1136 275.8811 614.2587 273.2C618.8341 267.4811 617.3289 266.0438 620.9791 259.2C624.0493 253.4438 623.6747 248 627.6996 248C630.3952 248 632.2299 253.6 634.42 253.6C638.9503 253.6 638.3878 245.4017 641.1405 236.8C645.1082 224.4017 644.5007 224.2 647.861 211.6C651.2212 199 649.8235 198.2941 654.5814 186.4C656.5439 181.494 659.0052 178 661.3019 178C665.7256 178 663.9003 188.1544 668.0223 197.6C670.6208 203.5544 670.4276 204.3053 674.7428 208.8C677.1481 211.3053 678.4107 209.6923 681.4633 211.6C685.1311 213.8923 684.5159 214.9077 688.1837 217.2C691.2363 219.1077 692.499 220 694.9042 220C699.2194 220 697.3095 213.2947 701.6247 208.8C704.03 206.2947 705.6327 206 708.3452 206C712.3531 206 712.0304 209.974 715.0656 214.4C718.7509 219.774 720.1246 225.6 721.7861 225.6C726.8451 225.6 723.6733 205.5303 728.5065 186.4C730.3937 178.9303 730.9281 172.4 735.227 172.4C737.6486 172.4 739.2518 174.6307 741.9474 178C745.9723 183.0307 744.3527 184.7053 748.6679 189.2C751.0732 191.7053 754.4579 192 755.3884 192C761.1783 192 756.8924 168.9336 762.1088 147.2C763.6129 140.9336 764.5141 136 768.8293 136C771.2346 136 773.9543 138.8 775.5498 138.8C780.6748 138.8 777.6672 126.948 782.2703 116.4C784.3876 111.548 787.56 108 788.9907 108C794.2804 108 790.8779 128.0697 795.7112 147.2C797.5984 154.6697 800.716 161.2 802.4316 161.2C807.4364 161.2 804.8871 138.6121 809.1521 116.4C811.6075 103.6121 811.3947 103.3268 815.8726 91.2C818.1151 85.1268 821.0141 80 822.593 80C827.7346 80 825.1475 101.1714 829.3135 122C831.8679 134.7714 831.0014 147.2 836.0339 147.2C837.7219 147.2 840.5642 141.6 842.7545 141.6C847.2847 141.6 845.2602 158.4 849.4749 158.4C851.9807 158.4 853.1602 154.426 856.1954 150C859.8806 144.626 858.891 143.8307 862.9158 138.8C865.6114 135.4307 868.2695 133.2 869.6363 133.2C874.99 133.2 871.9587 166.8 876.3568 166.8C878.6792 166.8 878.285 156.959 883.0772 150C885.0054 147.2 887.0852 149.4603 889.7977 147.2C893.8056 143.8603 894.4008 138.8 896.5181 138.8C901.1212 138.8 899.6752 150.0653 903.2386 161.2C906.3957 171.0653 905.837 180.8 909.959 180.8C912.5575 180.8 912.6547 169.6 916.6796 169.6C919.3752 169.6 923.4 175.2 923.4 175.2" fill="none" stroke="#2ec7c9" stroke-width="2" stroke-linejoin="bevel"></path>
</g>
<g clip-path="url(#zr0-c1)">
<path d="M76.6215 360C76.6215 360 79.9817 360 83.3419 360C86.7022 360 86.7022 360 90.0624 360C93.4226 360 93.4226 360 96.7829 360C100.1431 360 100.1431 360 103.5033 360C106.8636 360 106.8636 360 110.2238 360C113.584 360 113.584 360 116.9443 360C120.3045 360 120.3045 360 123.6647 360C127.025 360 127.1594 360 130.3852 360C133.8798 360 136.1235 360 137.1057 357.2C142.8439 340.8417 139.8187 315.2 143.8261 315.2C146.5391 315.2 145.0978 343.2 150.5466 343.2C151.8183 343.2 154.0412 343.2 157.2671 343.2C160.7617 343.2 160.6273 341.8 163.9875 340.4C167.3478 339 167.3478 339 170.708 337.6C174.0682 336.2 175.2834 337.4811 177.4285 334.8C182.0039 329.0811 179.5735 326.5189 184.1489 320.8C186.2939 318.1189 187.5091 318 190.8694 318C194.2296 318 194.0952 320.8 197.5898 320.8C200.8157 320.8 201.7262 320.8 204.3103 320.8C208.4467 320.8 207.6705 316.6 211.0308 312.4C214.391 308.2 215.001 308.5834 217.7512 304C221.7215 297.3834 219.8963 295.7189 224.4717 290C226.6167 287.3189 228.7869 289.7053 231.1922 287.2C235.5074 282.7053 236.2512 282.23 237.9126 276C242.9716 257.03 240.0141 256.0446 244.6331 236.8C246.7345 228.0446 246.5613 226.9589 251.3536 220C253.2818 217.2 254.7138 218.6 258.074 217.2C261.4343 215.8 262.082 216.6602 264.7945 214.4C268.8025 211.0602 268.1547 206 271.515 206C274.8752 206 274.529 210.5394 278.2354 214.4C281.2494 217.5394 281.9419 220 284.9559 220C288.6623 220 289.559 216.452 291.6763 211.6C296.2794 201.052 293.2718 198.1943 298.3968 189.2C299.9923 186.4 301.757 186.4 305.1173 186.4C308.4775 186.4 309.1252 186.9397 311.8377 189.2C315.8457 192.5397 314.8517 193.7394 318.5582 197.6C321.5722 200.7394 323.9119 203.2 325.2787 203.2C330.6324 203.2 326.4564 182.7783 331.9991 169.6C333.1768 166.8 335.3594 166.8 338.7196 166.8C342.0798 166.8 342.7276 167.3398 345.4401 169.6C349.448 172.9398 348.4541 174.1394 352.1605 178C355.1745 181.1394 355.2131 183.6 358.881 183.6C361.9336 183.6 363.1962 180.8 365.6014 180.8C369.9167 180.8 368.6367 192 372.3219 192C375.3571 192 375.6822 187.8 379.0424 183.6C382.4026 179.4 384.053 175.2 385.7628 175.2C390.7735 175.2 387.2226 206 392.4833 206C393.9431 206 395.4031 200.4 399.2038 200.4C402.1236 200.4 404.4241 200.4 405.9243 200.4C411.1446 200.4 407.4244 178 412.6447 178C414.1449 178 417.7193 178 419.3652 178C424.4397 178 421.0111 197.6 426.0856 197.6C427.7315 197.6 430.7762 197.6 432.8061 197.6C437.4967 197.6 436.6475 183.6 439.5266 183.6C443.3679 183.6 441.1725 203.2 446.247 203.2C447.8929 203.2 450.3834 203.2 452.9675 203.2C457.1039 203.2 456.6528 194.8 459.688 194.8C463.3732 194.8 463.3382 200.2438 466.4084 206C470.0587 212.8438 469.1587 220 473.1289 220C475.8791 220 476.1429 215.4606 479.8493 211.6C482.8634 208.4606 483.5558 206 486.5698 206C490.2763 206 489.2823 214.4 493.2903 214.4C496.0028 214.4 496.6505 211.6 500.0107 211.6C503.371 211.6 504.0187 214.4 506.7312 214.4C510.7392 214.4 509.3153 206 513.4517 206C516.0357 206 518.3521 206 520.1721 206C525.0725 206 521.9922 222.8 526.8926 222.8C528.7126 222.8 532.4321 222.8 533.613 222.8C539.1526 222.8 534.8739 253.6 540.3336 253.6C541.5944 253.6 543.6938 250.8 547.054 250.8C550.4142 250.8 550.7219 251.6923 553.7745 253.6C557.4423 255.8923 557.7993 255.8307 560.4949 259.2C564.5198 264.2307 564.1452 270.4 567.2154 270.4C570.8657 270.4 569.3604 256.4 573.9359 256.4C576.0809 256.4 577.1617 259.2 580.6563 259.2C583.8821 259.2 584.0165 259.2 587.3768 259.2C590.737 259.2 590.8714 259.2 594.0972 259.2C597.5918 259.2 598.1052 259.7397 600.8177 262C604.8257 265.3397 603.4018 270.4 607.5381 270.4C610.1223 270.4 611.6746 270.4 614.2587 270.4C618.395 270.4 617.2727 265.8606 620.9791 262C623.9931 258.8606 624.6856 256.4 627.6996 256.4C631.406 256.4 632.4575 264.8 634.42 264.8C639.178 264.8 637.3954 252.0828 641.1405 239.6C644.1159 229.6829 645.559 230.0703 647.861 220C652.2795 200.6703 649.0726 180.8 654.5814 180.8C655.7931 180.8 657.9417 183.6 661.3019 186.4C664.6621 189.2 665.6008 188.4688 668.0223 192C672.3212 198.2688 671.3826 199 674.7428 206C678.103 213 677.813 213.1562 681.4633 220C684.5334 225.7562 684.1588 231.2 688.1837 231.2C690.8793 231.2 691.2363 227.8923 694.9042 225.6C697.9568 223.6923 698.1301 222.8 701.6247 222.8C704.8505 222.8 705.1193 222.8 708.3452 222.8C711.8398 222.8 712.013 223.6923 715.0656 225.6C718.7335 227.8923 719.791 231.2 721.7861 231.2C726.5115 231.2 723.5335 219.5688 728.5065 211.6C730.2539 208.8 733.082 208.8 735.227 208.8C739.8024 208.8 737.2569 222.8 741.9474 222.8C743.9773 222.8 746.0838 222.8 748.6679 222.8C752.8043 222.8 752.0281 227 755.3884 231.2C758.7486 235.4 758.7486 235.4 762.1088 239.6C765.4691 243.8 764.8214 248 768.8293 248C771.5418 248 772.1896 246.6 775.5498 245.2C778.91 243.8 779.5578 244.6602 782.2703 242.4C786.2782 239.0602 786.8733 234 788.9907 234C793.5938 234 791.1081 256.4 795.7112 256.4C797.8286 256.4 799.0714 252.2 802.4316 248C805.7919 243.8 806.8554 244.3845 809.1521 239.6C813.5758 230.3845 811.7505 220 815.8726 220C818.471 220 818.2778 226.7053 822.593 231.2C824.9983 233.7053 827.5661 231.2 829.3135 234C834.2866 241.9688 831.3085 244.7404 836.0339 253.6C838.029 257.3404 839.7404 256.0606 842.7545 259.2C846.4609 263.0606 845.3385 267.6 849.4749 267.6C852.059 267.6 852.8351 267.6 856.1954 267.6C859.5556 267.6 860.3317 267.6 862.9158 267.6C867.0522 267.6 866.6011 259.2 869.6363 259.2C873.3216 259.2 871.9194 270.4 876.3568 270.4C878.6399 270.4 879.717 270.4 883.0772 270.4C886.4374 270.4 886.8779 270.4 889.7977 270.4C893.5983 270.4 893.8225 272.6307 896.5181 276C900.543 281.0307 898.9234 282.7053 903.2386 287.2C905.6438 289.7053 906.9064 290 909.959 290C913.6269 290 913.3193 284.4 916.6796 284.4C920.0398 284.4 923.4 290 923.4 290" fill="none" stroke="#b6a2de" stroke-width="2" stroke-linejoin="bevel"></path>
</g>
<path d="M1 0A1 1 0 1 1 1 -0.0001" transform="matrix(2.5,0,0,2.5,76.6215,360)" fill="#fff" stroke="#2ec7c9" stroke-width="0.8"></path>
<path d="M1 0A1 1 0 1 1 1 -0.0001" transform="matrix(2.5,0,0,2.5,137.1057,360)" fill="#fff" stroke="#2ec7c9" stroke-width="0.8"></path>
<path d="M1 0A1 1 0 1 1 1 -0.0001" transform="matrix(2.5,0,0,2.5,197.5898,360)" fill="#fff" stroke="#2ec7c9" stroke-width="0.8"></path>
<path d="M1 0A1 1 0 1 1 1 -0.0001" transform="matrix(2.5,0,0,2.5,258.074,360)" fill="#fff" stroke="#2ec7c9" stroke-width="0.8"></path>
<path d="M1 0A1 1 0 1 1 1 -0.0001" transform="matrix(2.5,0,0,2.5,318.5582,329.2)" fill="#fff" stroke="#2ec7c9" stroke-width="0.8"></path>
<path d="M1 0A1 1 0 1 1 1 -0.0001" transform="matrix(2.5,0,0,2.5,379.0424,292.8)" fill="#fff" stroke="#2ec7c9" stroke-width="0.8"></path>
<path d="M1 0A1 1 0 1 1 1 -0.0001" transform="matrix(2.5,0,0,2.5,439.5266,267.6)" fill="#fff" stroke="#2ec7c9" stroke-width="0.8"></path>
<path d="M1 0A1 1 0 1 1 1 -0.0001" transform="matrix(2.5,0,0,2.5,500.0107,256.4)" fill="#fff" stroke="#2ec7c9" stroke-width="0.8"></path>
<path d="M1 0A1 1 0 1 1 1 -0.0001" transform="matrix(2.5,0,0,2.5,560.4949,284.4)" fill="#fff" stroke="#2ec7c9" stroke-width="0.8"></path>
<path d="M1 0A1 1 0 1 1 1 -0.0001" transform="matrix(2.5,0,0,2.5,620.9791,259.2)" fill="#fff" stroke="#2ec7c9" stroke-width="0.8"></path>
<path d="M1 0A1 1 0 1 1 1 -0.0001" transform="matrix(2.5,0,0,2.5,681.4633,211.6)" fill="#fff" stroke="#2ec7c9" stroke-width="0.8"></path>
<path d="M1 0A1 1 0 1 1 1 -0.0001" transform="matrix(2.5,0,0,2.5,741.9474,178)" fill="#fff" stroke="#2ec7c9" stroke-width="0.8"></path>
<path d="M1 0A1 1 0 1 1 1 -0.0001" transform="matrix(2.5,0,0,2.5,802.4316,161.2)" fill="#fff" stroke="#2ec7c9" stroke-width="0.8"></path>
<path d="M1 0A1 1 0 1 1 1 -0.0001" transform="matrix(2.5,0,0,2.5,862.9158,138.8)" fill="#fff" stroke="#2ec7c9" stroke-width="0.8"></path>
<path d="M1 0A1 1 0 1 1 1 -0.0001" transform="matrix(2.5,0,0,2.5,923.4,175.2)" fill="#fff" stroke="#2ec7c9" stroke-width="0.8"></path>
<path d="M1 0A1 1 0 1 1 1 -0.0001" transform="matrix(2.5,0,0,2.5,76.6215,360)" fill="#fff" stroke="#b6a2de" stroke-width="0.8"></path>
<path d="M1 0A1 1 0 1 1 1 -0.0001" transform="matrix(2.5,0,0,2.5,137.1057,357.2)" fill="#fff" stroke="#b6a2de" stroke-width="0.8"></path>
<path d="M1 0A1 1 0 1 1 1 -0.0001" transform="matrix(2.5,0,0,2.5,197.5898,320.8)" fill="#fff" stroke="#b6a2de" stroke-width="0.8"></path>
<path d="M1 0A1 1 0 1 1 1 -0.0001" transform="matrix(2.5,0,0,2.5,258.074,217.2)" fill="#fff" stroke="#b6a2de" stroke-width="0.8"></path>
<path d="M1 0A1 1 0 1 1 1 -0.0001" transform="matrix(2.5,0,0,2.5,318.5582,197.6)" fill="#fff" stroke="#b6a2de" stroke-width="0.8"></path>
<path d="M1 0A1 1 0 1 1 1 -0.0001" transform="matrix(2.5,0,0,2.5,379.0424,183.6)" fill="#fff" stroke="#b6a2de" stroke-width="0.8"></path>
<path d="M1 0A1 1 0 1 1 1 -0.0001" transform="matrix(2.5,0,0,2.5,439.5266,183.6)" fill="#fff" stroke="#b6a2de" stroke-width="0.8"></path>
<path d="M1 0A1 1 0 1 1 1 -0.0001" transform="matrix(2.5,0,0,2.5,500.0107,211.6)" fill="#fff" stroke="#b6a2de" stroke-width="0.8"></path>
<path d="M1 0A1 1 0 1 1 1 -0.0001" transform="matrix(2.5,0,0,2.5,560.4949,259.2)" fill="#fff" stroke="#b6a2de" stroke-width="0.8"></path>
<path d="M1 0A1 1 0 1 1 1 -0.0001" transform="matrix(2.5,0,0,2.5,620.9791,262)" fill="#fff" stroke="#b6a2de" stroke-width="0.8"></path>
<path d="M1 0A1 1 0 1 1 1 -0.0001" transform="matrix(2.5,0,0,2.5,681.4633,220)" fill="#fff" stroke="#b6a2de" stroke-width="0.8"></path>
<path d="M1 0A1 1 0 1 1 1 -0.0001" transform="matrix(2.5,0,0,2.5,741.9474,222.8)" fill="#fff" stroke="#b6a2de" stroke-width="0.8"></path>
<path d="M1 0A1 1 0 1 1 1 -0.0001" transform="matrix(2.5,0,0,2.5,802.4316,248)" fill="#fff" stroke="#b6a2de" stroke-width="0.8"></path>
<path d="M1 0A1 1 0 1 1 1 -0.0001" transform="matrix(2.5,0,0,2.5,862.9158,267.6)" fill="#fff" stroke="#b6a2de" stroke-width="0.8"></path>
<path d="M1 0A1 1 0 1 1 1 -0.0001" transform="matrix(2.5,0,0,2.5,923.4,290)" fill="#fff" stroke="#b6a2de" stroke-width="0.8"></path>
<path d="M-5 -5l186.7012 0l0 23.2l-186.7012 0Z" transform="translate(397.6494 45)" fill="rgb(0,0,0)" fill-opacity="0" stroke="#ccc" stroke-width="0"></path>
<path d="M0 7L25 7" transform="translate(398.6494 44.6)" fill="#000" stroke="#2ec7c9" stroke-width="2" stroke-linecap="butt" stroke-miterlimit="10"></path>
<path d="M18.1 7A5.6 5.6 0 1 1 18.1 6.9994" transform="translate(398.6494 44.6)" fill="#fff" stroke="#2ec7c9" stroke-width="2" stroke-linecap="butt" stroke-miterlimit="10"></path>
<text dominant-baseline="central" text-anchor="start" style="font-size:12px;font-family:sans-serif;" x="30" y="7" transform="translate(398.6494 44.6)" fill="#333333">PyTorch</text>
<path d="M0 7L25 7" transform="translate(482.9971 44.6)" fill="#000" stroke="#b6a2de" stroke-width="2" stroke-linecap="butt" stroke-miterlimit="10"></path>
<path d="M18.1 7A5.6 5.6 0 1 1 18.1 6.9994" transform="translate(482.9971 44.6)" fill="#fff" stroke="#b6a2de" stroke-width="2" stroke-linecap="butt" stroke-miterlimit="10"></path>
<text dominant-baseline="central" text-anchor="start" style="font-size:12px;font-family:sans-serif;" x="30" y="7" transform="translate(482.9971 44.6)" fill="#333333">TensorFlow</text>
<path d="M-200.5522 -5l401.1045 0l0 28l-401.1045 0Z" transform="translate(486 13)" fill="rgb(0,0,0)" fill-opacity="0" stroke="#ccc" stroke-width="0"></path>
<text dominant-baseline="central" text-anchor="middle" style="font-size:18px;font-family:sans-serif;font-weight:bold;" xml:space="preserve" y="9" transform="translate(486 13)" fill="#008acd">PyTorch vs. TensorFlow Popularity Over Time</text>
<defs >
<clipPath id="zr0-c0">
<path d="M75 79l849 0l0 282l-849 0Z" fill="#000"></path>
</clipPath>
<clipPath id="zr0-c1">
<path d="M75 79l849 0l0 282l-849 0Z" fill="#000"></path>
</clipPath>
</defs>
</svg>